<svg width="176" height="40" viewBox="0 0 176 40" fill="none" xmlns="http://www.w3.org/2000/svg">
<path d="M34.1422 5.85781C30.3647 2.08031 25.3422 0 20 0C14.6578 0 9.63531 2.08031 5.85781 5.85781C2.08031 9.63531 0 14.6578 0 20C0 25.3422 2.08039 30.3646 5.85781 34.1422C9.63523 37.9198 14.6578 40 20 40C25.3422 40 30.3647 37.9197 34.1422 34.1422C37.9197 30.3647 40 25.3422 40 20C40 14.6578 37.9196 9.63539 34.1422 5.85781Z" fill="#33CC95"/>
<g clip-path="url(#clip0)">
<path d="M20.5714 8V33.1429" stroke="white" stroke-width="2" stroke-linecap="round" stroke-linejoin="round"/>
<path d="M26.2857 12.5714H17.7143C16.6534 12.5714 15.636 12.9929 14.8859 13.743C14.1357 14.4931 13.7143 15.5106 13.7143 16.5714C13.7143 17.6323 14.1357 18.6497 14.8859 19.3999C15.636 20.15 16.6534 20.5714 17.7143 20.5714H23.4286C24.4894 20.5714 25.5069 20.9929 26.257 21.743C27.0072 22.4932 27.4286 23.5106 27.4286 24.5714C27.4286 25.6323 27.0072 26.6497 26.257 27.3999C25.5069 28.15 24.4894 28.5714 23.4286 28.5714H13.7143" stroke="white" stroke-width="2" stroke-linecap="round" stroke-linejoin="round"/>
</g>
<path d="M65.1453 12.342C66.6853 12.342 68.0363 12.643 69.1983 13.245C70.3743 13.847 71.2773 14.708 71.9073 15.828C72.5513 16.934 72.8733 18.222 72.8733 19.692C72.8733 21.162 72.5513 22.45 71.9073 23.556C71.2773 24.648 70.3743 25.495 69.1983 26.097C68.0363 26.699 66.6853 27 65.1453 27H60.0213V12.342H65.1453ZM65.0403 24.501C66.5803 24.501 67.7703 24.081 68.6103 23.241C69.4503 22.401 69.8703 21.218 69.8703 19.692C69.8703 18.166 69.4503 16.976 68.6103 16.122C67.7703 15.254 66.5803 14.82 65.0403 14.82H62.9613V24.501H65.0403ZM85.889 20.931C85.889 21.351 85.861 21.729 85.805 22.065H77.3C77.37 22.905 77.664 23.563 78.182 24.039C78.7 24.515 79.337 24.753 80.093 24.753C81.185 24.753 81.962 24.284 82.424 23.346H85.595C85.259 24.466 84.615 25.39 83.663 26.118C82.711 26.832 81.542 27.189 80.156 27.189C79.036 27.189 78.028 26.944 77.132 26.454C76.25 25.95 75.557 25.243 75.053 24.333C74.563 23.423 74.318 22.373 74.318 21.183C74.318 19.979 74.563 18.922 75.053 18.012C75.543 17.102 76.229 16.402 77.111 15.912C77.993 15.422 79.008 15.177 80.156 15.177C81.262 15.177 82.249 15.415 83.117 15.891C83.999 16.367 84.678 17.046 85.154 17.928C85.644 18.796 85.889 19.797 85.889 20.931ZM82.844 20.091C82.83 19.335 82.557 18.733 82.025 18.285C81.493 17.823 80.842 17.592 80.072 17.592C79.344 17.592 78.728 17.816 78.224 18.264C77.734 18.698 77.433 19.307 77.321 20.091H82.844ZM92.8859 24.291L95.8259 15.366H98.9549L94.6499 27H91.0799L86.7959 15.366H89.9459L92.8859 24.291ZM121.591 12.342V27H118.651V17.466L114.724 27H112.498L108.55 17.466V27H105.61V12.342H108.949L113.611 23.241L118.273 12.342H121.591ZM129.664 27.189C128.544 27.189 127.536 26.944 126.64 26.454C125.744 25.95 125.037 25.243 124.519 24.333C124.015 23.423 123.763 22.373 123.763 21.183C123.763 19.993 124.022 18.943 124.54 18.033C125.072 17.123 125.793 16.423 126.703 15.933C127.613 15.429 128.628 15.177 129.748 15.177C130.868 15.177 131.883 15.429 132.793 15.933C133.703 16.423 134.417 17.123 134.935 18.033C135.467 18.943 135.733 19.993 135.733 21.183C135.733 22.373 135.46 23.423 134.914 24.333C134.382 25.243 133.654 25.95 132.73 26.454C131.82 26.944 130.798 27.189 129.664 27.189ZM129.664 24.627C130.196 24.627 130.693 24.501 131.155 24.249C131.631 23.983 132.009 23.591 132.289 23.073C132.569 22.555 132.709 21.925 132.709 21.183C132.709 20.077 132.415 19.23 131.827 18.642C131.253 18.04 130.546 17.739 129.706 17.739C128.866 17.739 128.159 18.04 127.585 18.642C127.025 19.23 126.745 20.077 126.745 21.183C126.745 22.289 127.018 23.143 127.564 23.745C128.124 24.333 128.824 24.627 129.664 24.627ZM144.336 15.198C145.722 15.198 146.842 15.639 147.696 16.521C148.55 17.389 148.977 18.607 148.977 20.175V27H146.037V20.574C146.037 19.65 145.806 18.943 145.344 18.453C144.882 17.949 144.252 17.697 143.454 17.697C142.642 17.697 141.998 17.949 141.522 18.453C141.06 18.943 140.829 19.65 140.829 20.574V27H137.889V15.366H140.829V16.815C141.221 16.311 141.718 15.919 142.32 15.639C142.936 15.345 143.608 15.198 144.336 15.198ZM162.588 20.931C162.588 21.351 162.56 21.729 162.504 22.065H153.999C154.069 22.905 154.363 23.563 154.881 24.039C155.399 24.515 156.036 24.753 156.792 24.753C157.884 24.753 158.661 24.284 159.123 23.346H162.294C161.958 24.466 161.314 25.39 160.362 26.118C159.41 26.832 158.241 27.189 156.855 27.189C155.735 27.189 154.727 26.944 153.831 26.454C152.949 25.95 152.256 25.243 151.752 24.333C151.262 23.423 151.017 22.373 151.017 21.183C151.017 19.979 151.262 18.922 151.752 18.012C152.242 17.102 152.928 16.402 153.81 15.912C154.692 15.422 155.707 15.177 156.855 15.177C157.961 15.177 158.948 15.415 159.816 15.891C160.698 16.367 161.377 17.046 161.853 17.928C162.343 18.796 162.588 19.797 162.588 20.931ZM159.543 20.091C159.529 19.335 159.256 18.733 158.724 18.285C158.192 17.823 157.541 17.592 156.771 17.592C156.043 17.592 155.427 17.816 154.923 18.264C154.433 18.698 154.132 19.307 154.02 20.091H159.543ZM175.864 15.366L168.661 32.502H165.532L168.052 26.706L163.39 15.366H166.687L169.69 23.493L172.735 15.366H175.864Z" fill="white"/>
<defs>
<clipPath id="clip0">
<rect width="27.4286" height="27.4286" fill="white" transform="translate(6.85715 6.85714)"/>
</clipPath>
</defs>
</svg>
